# xmcd
#
# Track frame offsets:
#	150
#	14009
#	34613
#	54830
#	71922
#	87343
#	103296
#	121432
#	136168
#	152926
#	169182
#	179977
#	194368
#	210457
#	224948
#	239365
#	256290
#	271488
#	287807
#	304342
#
# Disc length: 4254 seconds
#
# Revision: 1
# Processed by: cddbd v1.5.2PL0 Copyright (c) Steve Scherf et al.
# Submitted via: audiograbber 1.83.01
#
DISCID=42109c14
DTITLE=Various Artist - Double Cream 4 - The Very Best Of Cream Of Country [Di
DTITLE=sc 1]
DYEAR=2012
DGENRE=Country
TTITLE0=Dierks Bentley - Sideways
TTITLE1=Brad Paisley - Ticks
TTITLE2=Carrie Underwood - Temporary Home
TTITLE3=Brooks and Dunn - Proud Of The House We Built
TTITLE4=Toby Keith - How Do You Like Me Now?!
TTITLE5=Sugarland - All I Want To Do
TTITLE6=Tim McGraw - Southern Voice
TTITLE7=Jerrod Niemann - Lover, Lover
TTITLE8=Martina McBride - Wrong Baby Wrong Baby Wrong
TTITLE9=Blake Shelton - She Wouldn't Be Gone
TTITLE10=Diamond Rio - Unbelievable
TTITLE11=Miranda Lambert - Gunpowder and Lead
TTITLE12=Chris Young - Gettin' You Home
TTITLE13=Josh Turner - Why Don't We Just Dance
TTITLE14=Kellie Pickler - Things That Never Cross A Man's Mind
TTITLE15=Billy Currington - That's How Country Boys Roll
TTITLE16=Randy Travis - Three Wooden Crosses
TTITLE17=Sara Evans - No Place That Far
TTITLE18=Alabama - I'm In The Mood
TTITLE19=Eli Young Band - Crazy Girl
EXTD=
EXTT0=
EXTT1=
EXTT2=
EXTT3=
EXTT4=
EXTT5=
EXTT6=
EXTT7=
EXTT8=
EXTT9=
EXTT10=
EXTT11=
EXTT12=
EXTT13=
EXTT14=
EXTT15=
EXTT16=
EXTT17=
EXTT18=
EXTT19=
PLAYORDER=
